# xmcd
#
# Track frame offsets:
#	150
#	16843
#	29446
#	40042
#	57228
#	74674
#	93197
#	107313
#	126695
#	141019
#	153570
#	163183
#	177234
#	191800
#	207265
#	219000
#	243099
#	255150
#	272425
#	286300
#
# Disc length: 4031 seconds
#
# Revision: 0
# Processed by: cddbd v1.5.2PL0 Copyright (c) Steve Scherf et al.
# Submitted via: EasyCDDAExtractor 16.0.6.1
#
DISCID=150fbd14
DTITLE=Συλλογικός δίσκος - Τα τραγούδια του τζούκ μποξ 3
DYEAR=2010
DGENRE=Ποικίλη
TTITLE0=Γλυκερία - Της γερακίνας γιός [Β. Τσιτσάνης-Κ. Βίρβος]
TTITLE1=Πουλόπουλος Γιάννης - Αυτοί που μένουν κι αυτοί που φεύγουν[Γ.Ζαμπέτας
TTITLE1=Α.Καγιάντας]
TTITLE2=Πάνου Πόλυ - Τι σού 'κανα και πίνεις [Μ. Πλέσσας-Λ. Παπαδόπουλος]
TTITLE3=Μενιδιάτης Μιχάλης - Πετραδάκι, πετραδάκι [Α. Καλδάρας-Ε. Παπαγιαννοπο
TTITLE3=ύλου]
TTITLE4=Περπινιάδης Βαγγέλης - Ανεβαίνω σκαλοπάτια [Απόστολος Καλδάρας]
TTITLE5=Καζαντζίδης Στέλιος - Γιατί με ξύπνησες πρωΐ [Βασίλης Τσιτσάνης]
TTITLE6=Μπέλλου Σωτηρία - Είδα κι έπαθα κυρά μου[Σ.Χρυσίνης/Σ.Παντελίδης-Χ.Κολ
TTITLE6=οκοτρώνης]
TTITLE7=Αγγελόπουλος Μανώλης - Τα μαύρα μάτια σου [αγν., διασκ. Μ.Αγγελόπουλος
TTITLE7=Μ.Μπιζάνη]
TTITLE8=Σακελλαρίου Ρίτα - Τό 'πες και τό 'κανες [Σ. Μακριδάκης-Δ. Γκούτης]
TTITLE9=Αλεξάνδρα - Θα σπάσω κούπες [αγν., διασκ. Χ. Νικολόπουλος]
TTITLE10=Ευσταθίου Δημήτρης - Η δουλειά κάνει τους άντρες [Μ. Λοΐζος-Λ. Παπαδό
TTITLE10=πουλος]
TTITLE11=Μοσχολιού Βίκυ - Τι να φταίει [Γ. Ζαμπέταας-Δ. Χριστοδούλου]
TTITLE12=Γαβαλάς Πάνος-Κούρτη Ρία - Μπρος γκρεμός και πίσω ρέμα [Σ. Ζαφειρίου-
TTITLE12=Π. Γαβαλάς]
TTITLE13=Καναρίδης Μανώλης - Χάθηκες (Δεν έχει δρόμο να διαβώ)[Γ. Ζαμπέταας-Δ.
TTITLE13=Χριστοδούλου]
TTITLE14=Ζαγοραίος Σπύρος - Κανναβουριές [Μιχάλης Δασκαλάκης]
TTITLE15=Διονυσίου Στέλιος - Τα πήρες όλα [Θ. Πολυκανδριώτης-Γ. Πάριος]
TTITLE16=Λαύκας Γιώργος - Σε τούτο το στενό [Γ. Μπιθικώτσης-Δ. Γκούτης]
TTITLE17=Τσαουσάκης Πρόδρομος - Να πεθάνεις άτακτη [Πρόδρομος Τσαουσάκης]
TTITLE18=Γλυκερία - Θεσσαλονίκη μου [Μ. Χιώτης-Χ. Κολοκοτρώνης]
TTITLE19=Μαργαρίτης Γιώργος - Στο κελί 33 [Γ. Μάμμος-Σ. Τσιλιβερδής]
EXTD=
EXTT0=
EXTT1=
EXTT2=
EXTT3=
EXTT4=
EXTT5=
EXTT6=
EXTT7=
EXTT8=
EXTT9=
EXTT10=
EXTT11=
EXTT12=
EXTT13=
EXTT14=
EXTT15=
EXTT16=
EXTT17=
EXTT18=
EXTT19=
PLAYORDER=
